<svg width="640" height="360" viewBox="0 0 640 360" fill="none" xmlns="http://www.w3.org/2000/svg">
  <rect width="640" height="360" rx="40" fill="#020617"/>
  <rect x="40" y="40" width="560" height="280" rx="24" fill="#020617" stroke="#1E293B" stroke-width="2"/>
  <rect x="64" y="64" width="96" height="20" rx="10" fill="#1E293B"/>
  <rect x="64" y="96" width="72" height="12" rx="6" fill="#111827"/>
  <rect x="64" y="116" width="88" height="12" rx="6" fill="#111827"/>
  <rect x="64" y="136" width="64" height="12" rx="6" fill="#111827"/>
  <rect x="64" y="176" width="96" height="20" rx="10" fill="#1E293B"/>
  <rect x="64" y="208" width="72" height="12" rx="6" fill="#111827"/>
  <rect x="64" y="228" width="88" height="12" rx="6" fill="#111827"/>
  <rect x="64" y="248" width="64" height="12" rx="6" fill="#111827"/>
  <path d="M144 284h432" stroke="#1F2937" stroke-width="2" stroke-linecap="round"/>
  <path d="M152 262L212 210L248 232L304 178L360 214L412 146L456 188L512 132L552 164" stroke="url(#grad)" stroke-width="4" stroke-linecap="round" stroke-linejoin="round"/>
  <circle cx="212" cy="210" r="4" fill="#22C55E"/>
  <circle cx="304" cy="178" r="4" fill="#22C55E"/>
  <circle cx="412" cy="146" r="4" fill="#22C55E"/>
  <circle cx="512" cy="132" r="4" fill="#22C55E"/>
  <defs>
    <linearGradient id="grad" x1="152" y1="132" x2="552" y2="262" gradientUnits="userSpaceOnUse">
      <stop stop-color="#22C55E"/>
      <stop offset="1" stop-color="#3B82F6"/>
    </linearGradient>
  </defs>
</svg>
